<svg width="1585" height="1152" viewBox="0 0 1585 1152" fill="none" xmlns="http://www.w3.org/2000/svg">
<rect x="50" y="71" width="1466" height="909" fill="white"/>
<path d="M783 464L262.519 980L1303.48 980L783 464Z" fill="white"/>
<path d="M1302.27 979.5L783 464.704L263.733 979.5L1302.27 979.5Z" stroke="black" stroke-opacity="0.32"/>
<g filter="url(#filter0_d_51_3216)">
<path d="M782.772 629L75 71.0001L1510 71.0001L782.772 629Z" fill="white"/>
<path d="M1508.53 71.5001L782.777 628.367L76.4418 71.5001L1508.53 71.5001Z" stroke="black" stroke-opacity="0.32"/>
</g>
<path fill-rule="evenodd" clip-rule="evenodd" d="M663.258 268.447C663.196 269.285 663.145 270.628 663.145 271.429C663.145 273.198 662.991 273.324 661.759 272.565C660.408 271.733 658.741 270.08 657.711 268.551C656.974 267.458 656.681 267.167 656.31 267.158C656.052 267.152 655.807 267.214 655.765 267.295C655.723 267.377 656.111 268.777 656.628 270.406C657.144 272.035 657.61 273.524 657.664 273.714C657.998 274.891 653.295 273.172 649.954 270.894C648.515 269.913 648.459 269.894 648.037 270.207C647.798 270.385 647.626 270.605 647.656 270.697C647.686 270.788 648.868 272.297 650.283 274.049C651.698 275.802 652.855 277.314 652.855 277.409C652.855 277.815 651.472 278.089 649.542 278.065C647.696 278.043 644.018 277.425 642.262 276.843C641.775 276.681 641.66 276.714 641.435 277.077C641.292 277.309 641.232 277.564 641.303 277.642C641.375 277.721 643.276 278.775 645.529 279.985C647.782 281.195 649.657 282.221 649.696 282.265C649.885 282.479 649.143 283.086 647.885 283.745C646.175 284.64 643.945 285.347 640.746 286.008C639.409 286.284 638.291 286.537 638.262 286.569C638.234 286.602 638.163 286.896 638.105 287.223L638 287.818L643.204 288.07C646.066 288.208 648.434 288.348 648.465 288.381C648.496 288.413 648.387 288.736 648.222 289.099C647.51 290.667 644.365 293.511 640.345 296.22C638.443 297.502 638.21 297.718 638.208 298.202C638.207 298.52 638.301 298.745 638.435 298.745C638.561 298.745 640.973 297.812 643.795 296.672C646.617 295.531 649.034 294.598 649.166 294.598C649.495 294.598 649.324 295.328 648.571 297.144C647.599 299.488 645.314 303.286 642.552 307.146C641.592 308.488 641.567 308.554 641.806 309.071C641.943 309.366 642.096 309.607 642.148 309.607C642.199 309.607 644.429 307.385 647.104 304.67C649.778 301.955 652.005 299.733 652.051 299.733C652.098 299.733 652.191 300.146 652.258 300.652C652.561 302.943 651.358 309.765 649.357 317.095C648.881 318.838 648.868 318.97 649.152 319.195C649.318 319.327 649.526 319.452 649.614 319.473C649.701 319.495 651.273 315.941 653.106 311.576C654.94 307.212 656.512 303.628 656.6 303.612C656.892 303.56 657.373 304.761 657.816 306.652C658.629 310.117 659.23 314.982 659.731 322.139C659.937 325.093 660.03 325.728 660.287 325.941C660.457 326.081 660.649 326.196 660.715 326.196C660.781 326.196 660.89 324.797 660.957 323.086C661.289 314.569 661.746 305.2 661.833 305.101C662.018 304.893 663.683 306.937 664.7 308.62C666.553 311.687 669.959 318.983 672.602 325.549C673.299 327.282 673.497 327.607 673.991 327.838C674.308 327.987 674.591 328.043 674.619 327.964C674.657 327.857 667.83 306.051 667.064 303.832C666.96 303.532 666.698 303.489 665.063 303.5C661.263 303.527 658.098 301.993 655.522 298.874C652.956 295.768 651.641 291.215 652.141 287.169C652.766 282.106 655.448 277.872 659.376 275.746C661.175 274.773 662.607 274.403 664.669 274.377C665.652 274.365 666.456 274.336 666.457 274.311C666.457 274.287 666.231 273.621 665.955 272.83C665.678 272.04 665.207 270.468 664.909 269.337C664.611 268.206 664.346 267.258 664.322 267.23C664.297 267.202 664.074 267.121 663.825 267.051C663.374 266.923 663.372 266.926 663.258 268.447ZM669.761 271.813C669.143 273.297 668.616 274.573 668.59 274.647C668.563 274.722 669.111 275.042 669.808 275.359C670.504 275.676 671.115 275.958 671.164 275.985C671.213 276.012 671.254 274.509 671.254 272.644C671.254 270.432 671.19 269.23 671.069 269.184C670.967 269.146 670.379 270.329 669.761 271.813ZM674.965 276.342C674.267 277.055 673.695 277.704 673.695 277.784C673.695 277.865 674.056 278.399 674.498 278.97L675.3 280.008L676.001 277.774C676.657 275.682 676.747 275.047 676.386 275.047C676.303 275.047 675.664 275.63 674.965 276.342ZM676.001 296.664C675.735 297.14 675.158 297.981 674.721 298.532C674.185 299.207 674.002 299.563 674.159 299.622C674.288 299.671 675.06 299.94 675.875 300.221C681.849 302.277 691.074 306.364 700.634 311.188L705.407 313.597L705.722 313.133C705.895 312.877 706.019 312.61 705.998 312.538C705.965 312.429 676.646 295.769 676.526 295.79C676.504 295.794 676.268 296.187 676.001 296.664ZM670.744 301.976C669.026 302.957 669.017 302.966 669.433 303.274C671.314 304.665 676.096 309.653 683.212 317.648L689.066 324.226L689.621 324.007C689.926 323.886 690.176 323.751 690.176 323.706C690.176 323.564 672.713 301.017 672.591 301.002C672.527 300.994 671.696 301.433 670.744 301.976Z" fill="black" fill-opacity="0.81"/>
<path d="M726.676 281.836L726.712 281.8H745.36C747.376 281.8 749.356 282.628 750.796 284.068C752.236 285.544 753.028 287.488 753.028 289.54H747.628C747.628 288.928 747.412 288.316 746.98 287.884C746.548 287.452 745.972 287.2 745.36 287.2H726.712C725.452 287.2 724.408 288.208 724.408 289.468C724.408 290.728 725.452 291.772 726.712 291.772H745.396C747.412 291.736 749.392 292.528 750.796 293.968C752.236 295.408 753.028 297.352 753.028 299.404C752.992 303.58 749.608 307 745.396 307H726.676C722.464 307 719.044 303.58 719.044 299.368H724.408C724.408 300.628 725.416 301.636 726.64 301.636H745.396C746.188 301.636 746.944 301.204 747.34 300.52C747.772 299.8 747.736 298.936 747.34 298.252C746.908 297.532 746.152 297.136 745.324 297.136H726.64C724.624 297.172 722.68 296.38 721.24 294.94C719.8 293.5 719.008 291.52 719.044 289.504C719.044 285.256 722.464 281.836 726.676 281.836ZM785.317 289.684V299.512C785.245 303.688 781.825 307.072 777.613 307.072H761.341C757.093 307.036 753.637 303.616 753.637 299.332V289.576C753.637 285.328 757.057 281.872 761.341 281.872H777.613C779.701 281.8 781.717 282.628 783.157 284.104C784.633 285.58 785.389 287.596 785.317 289.684ZM779.917 289.576C779.917 288.28 778.873 287.236 777.613 287.236H761.341C760.045 287.236 759.001 288.28 759.001 289.576V299.332C759.001 300.628 760.045 301.672 761.341 301.672H777.613C778.873 301.672 779.917 300.628 779.917 299.332V289.576ZM818.08 307.036L794.14 307C789.892 307 786.436 303.544 786.436 299.296V281.8H791.8V299.296C791.8 300.592 792.844 301.636 794.14 301.636H818.08V307.036ZM844.244 307V299.548H823.328V307H817.964V289.504C817.964 285.256 821.42 281.836 825.668 281.8H841.94C846.188 281.836 849.644 285.256 849.644 289.504V307H844.244ZM823.328 294.184H844.244V289.504C844.244 288.244 843.236 287.2 841.94 287.2H825.668C824.372 287.2 823.328 288.244 823.328 289.504V294.184ZM880.561 293.572C882.037 294.976 882.901 296.956 882.901 299.008V307H877.501V299.008C877.501 298.468 877.285 297.892 876.889 297.496C876.493 297.1 875.953 296.884 875.377 296.884H856.585V307H851.221V281.8C861.121 281.8 864.433 281.836 874.333 281.836C877.141 281.836 879.697 283.348 880.993 285.832C882.289 288.28 882.109 291.268 880.561 293.572ZM874.333 287.2H856.585V291.484H874.333C875.485 291.484 876.421 290.512 876.421 289.36C876.421 288.208 875.485 287.236 874.333 287.2ZM884.05 307.108V281.8H889.414V307.108H884.05ZM898.126 281.836L898.162 281.8H916.81C918.826 281.8 920.806 282.628 922.246 284.068C923.686 285.544 924.478 287.488 924.478 289.54H919.078C919.078 288.928 918.862 288.316 918.43 287.884C917.998 287.452 917.422 287.2 916.81 287.2H898.162C896.902 287.2 895.858 288.208 895.858 289.468C895.858 290.728 896.902 291.772 898.162 291.772H916.846C918.862 291.736 920.842 292.528 922.246 293.968C923.686 295.408 924.478 297.352 924.478 299.404C924.442 303.58 921.058 307 916.846 307H898.126C893.914 307 890.494 303.58 890.494 299.368H895.858C895.858 300.628 896.866 301.636 898.09 301.636H916.846C917.638 301.636 918.394 301.204 918.79 300.52C919.222 299.8 919.186 298.936 918.79 298.252C918.358 297.532 917.602 297.136 916.774 297.136H898.09C896.074 297.172 894.13 296.38 892.69 294.94C891.25 293.5 890.458 291.52 890.494 289.504C890.494 285.256 893.914 281.836 898.126 281.836Z" fill="black" fill-opacity="0.81"/>
<path d="M596.455 211.909H583.636C583.545 210.848 583.303 209.886 582.909 209.023C582.53 208.159 582 207.417 581.318 206.795C580.652 206.159 579.841 205.674 578.886 205.341C577.932 204.992 576.848 204.818 575.636 204.818C573.515 204.818 571.72 205.333 570.25 206.364C568.795 207.394 567.689 208.871 566.932 210.795C566.189 212.72 565.818 215.03 565.818 217.727C565.818 220.576 566.197 222.962 566.955 224.886C567.727 226.795 568.841 228.235 570.295 229.205C571.75 230.159 573.5 230.636 575.545 230.636C576.712 230.636 577.758 230.492 578.682 230.205C579.606 229.902 580.409 229.47 581.091 228.909C581.773 228.348 582.326 227.674 582.75 226.886C583.189 226.083 583.485 225.182 583.636 224.182L596.455 224.273C596.303 226.242 595.75 228.25 594.795 230.295C593.841 232.326 592.485 234.205 590.727 235.932C588.985 237.644 586.826 239.023 584.25 240.068C581.674 241.114 578.682 241.636 575.273 241.636C571 241.636 567.167 240.72 563.773 238.886C560.394 237.053 557.72 234.356 555.75 230.795C553.795 227.235 552.818 222.879 552.818 217.727C552.818 212.545 553.818 208.182 555.818 204.636C557.818 201.076 560.515 198.386 563.909 196.568C567.303 194.735 571.091 193.818 575.273 193.818C578.212 193.818 580.917 194.22 583.386 195.023C585.856 195.826 588.023 197 589.886 198.545C591.75 200.076 593.25 201.962 594.386 204.205C595.523 206.447 596.212 209.015 596.455 211.909ZM645.358 217.727C645.358 222.909 644.351 227.28 642.336 230.841C640.321 234.386 637.601 237.076 634.177 238.909C630.752 240.727 626.934 241.636 622.722 241.636C618.48 241.636 614.646 240.72 611.222 238.886C607.813 237.038 605.101 234.341 603.086 230.795C601.086 227.235 600.086 222.879 600.086 217.727C600.086 212.545 601.086 208.182 603.086 204.636C605.101 201.076 607.813 198.386 611.222 196.568C614.646 194.735 618.48 193.818 622.722 193.818C626.934 193.818 630.752 194.735 634.177 196.568C637.601 198.386 640.321 201.076 642.336 204.636C644.351 208.182 645.358 212.545 645.358 217.727ZM632.358 217.727C632.358 214.939 631.987 212.591 631.245 210.682C630.518 208.758 629.434 207.303 627.995 206.318C626.571 205.318 624.813 204.818 622.722 204.818C620.631 204.818 618.866 205.318 617.427 206.318C616.002 207.303 614.919 208.758 614.177 210.682C613.449 212.591 613.086 214.939 613.086 217.727C613.086 220.515 613.449 222.871 614.177 224.795C614.919 226.705 616.002 228.159 617.427 229.159C618.866 230.144 620.631 230.636 622.722 230.636C624.813 230.636 626.571 230.144 627.995 229.159C629.434 228.159 630.518 226.705 631.245 224.795C631.987 222.871 632.358 220.515 632.358 217.727ZM689.558 194.455V241H679.012L662.194 216.545H661.921V241H649.285V194.455H660.012L676.558 218.818H676.921V194.455H689.558ZM693.615 241V194.455H726.342V204.636H706.251V212.636H724.342V222.818H706.251V241H693.615ZM741.706 194.455V241H729.07V194.455H741.706ZM763.684 241H745.775V194.455H763.502C768.29 194.455 772.427 195.386 775.911 197.25C779.411 199.098 782.108 201.765 784.002 205.25C785.911 208.72 786.866 212.879 786.866 217.727C786.866 222.576 785.919 226.742 784.025 230.227C782.131 233.697 779.449 236.364 775.98 238.227C772.51 240.076 768.411 241 763.684 241ZM758.411 230.273H763.23C765.533 230.273 767.495 229.902 769.116 229.159C770.752 228.417 771.995 227.136 772.843 225.318C773.707 223.5 774.139 220.97 774.139 217.727C774.139 214.485 773.699 211.955 772.82 210.136C771.957 208.318 770.684 207.038 769.002 206.295C767.336 205.553 765.29 205.182 762.866 205.182H758.411V230.273ZM790.792 241V194.455H824.338V204.636H803.429V212.636H822.611V222.818H803.429V230.818H824.247V241H790.792ZM868.958 194.455V241H858.412L841.594 216.545H841.321V241H828.685V194.455H839.412L855.958 218.818H856.321V194.455H868.958ZM871.742 204.636V194.455H912.197V204.636H898.197V241H885.742V204.636H871.742ZM927.669 194.455V241H915.033V194.455H927.669ZM943.828 241H930.192L945.556 194.455H962.828L978.192 241H964.556L954.374 207.273H954.01L943.828 241ZM941.283 222.636H966.919V232.091H941.283V222.636ZM980.755 241V194.455H993.391V230.818H1012.21V241H980.755Z" fill="black" fill-opacity="0.81"/>
<defs>
<filter id="filter0_d_51_3216" x="0.699997" y="0.699997" width="1583.6" height="706.6" filterUnits="userSpaceOnUse" color-interpolation-filters="sRGB">
<feFlood flood-opacity="0" result="BackgroundImageFix"/>
<feColorMatrix in="SourceAlpha" type="matrix" values="0 0 0 0 0 0 0 0 0 0 0 0 0 0 0 0 0 0 127 0" result="hardAlpha"/>
<feOffset dy="4"/>
<feGaussianBlur stdDeviation="37.15"/>
<feComposite in2="hardAlpha" operator="out"/>
<feColorMatrix type="matrix" values="0 0 0 0 0 0 0 0 0 0 0 0 0 0 0 0 0 0 0.05 0"/>
<feBlend mode="normal" in2="BackgroundImageFix" result="effect1_dropShadow_51_3216"/>
<feBlend mode="normal" in="SourceGraphic" in2="effect1_dropShadow_51_3216" result="shape"/>
</filter>
</defs>
</svg>
