<svg width="261" height="208" viewBox="0 0 261 208" fill="none" xmlns="http://www.w3.org/2000/svg">
<path fill-rule="evenodd" clip-rule="evenodd" d="M96.9478 4.93384C96.7075 7.79311 96.5107 12.3696 96.5107 15.1029C96.5107 21.1339 95.9196 21.5642 91.1919 18.9756C86.0084 16.1372 79.6093 10.5009 75.656 5.29008C72.8273 1.56213 71.7021 0.568854 70.2777 0.539224C69.287 0.519022 68.3459 0.729802 68.1859 1.00724C68.026 1.28468 69.516 6.05776 71.4973 11.6133C73.4786 17.1689 75.2685 22.245 75.4746 22.8928C76.7551 26.9076 58.7051 21.0443 45.8815 13.2793C40.3572 9.93453 40.145 9.86652 38.5238 10.9352C37.6055 11.5406 36.9481 12.2914 37.0633 12.6046C37.1784 12.917 41.7147 18.0618 47.1452 24.0369C52.5757 30.012 57.0183 35.1682 57.0183 35.4942C57.0183 36.878 51.7096 37.8113 44.3004 37.7312C37.2145 37.6538 23.099 35.548 16.3592 33.5615C14.491 33.0113 14.0479 33.1231 13.1858 34.3615C12.6342 35.1534 12.4066 36.0201 12.6791 36.2881C12.9522 36.5561 20.2502 40.1514 28.8984 44.2773C37.5459 48.4033 44.7429 51.9009 44.8908 52.0504C45.6184 52.7824 42.7689 54.8518 37.9415 57.0976C31.3784 60.1501 22.8179 62.5609 10.5385 64.8141C5.40645 65.7555 1.11718 66.6168 1.00674 66.7286C0.896295 66.8397 0.624529 67.843 0.40297 68.9582L0 70.9851L19.9744 71.8444C30.9607 72.3171 40.0473 72.7939 40.1664 72.9043C40.2856 73.0141 39.8659 74.1171 39.2333 75.3555C36.5023 80.7016 24.429 90.3979 8.99891 99.637C1.69951 104.008 0.805243 104.745 0.799219 106.395C0.794533 107.477 1.15667 108.246 1.6694 108.246C2.15268 108.246 11.4106 105.065 22.2436 101.176C33.0759 97.2868 42.3526 94.105 42.8579 94.105C44.1197 94.105 43.4651 96.5946 40.5754 102.786C36.8451 110.778 28.0724 123.729 17.473 136.891C13.7862 141.469 13.6891 141.691 14.6088 143.457C15.1323 144.461 15.722 145.284 15.9201 145.284C16.1176 145.284 24.6774 137.708 34.9427 128.449C45.2074 119.189 53.7532 111.613 53.9326 111.613C54.1119 111.613 54.4687 113.023 54.7257 114.746C55.8904 122.559 51.2698 145.823 43.5902 170.816C41.7635 176.76 41.714 177.207 42.8037 177.975C43.443 178.426 44.2402 178.853 44.5762 178.926C44.9122 178.998 50.9445 166.881 57.9822 151.998C65.0199 137.116 71.0535 124.896 71.3908 124.842C72.5127 124.664 74.3575 128.76 76.059 135.206C79.1782 147.022 81.4862 163.611 83.4079 188.016C84.2011 198.089 84.5579 200.254 85.5432 200.979C86.1938 201.457 86.9335 201.849 87.1865 201.849C87.4395 201.849 87.8565 197.077 88.1129 191.243C89.3893 162.203 91.1431 130.257 91.4784 129.919C92.1859 129.208 98.5784 136.178 102.481 141.917C109.595 152.374 122.665 177.253 132.81 199.644C135.486 205.55 136.244 206.66 138.142 207.449C139.359 207.956 140.444 208.148 140.553 207.877C140.699 207.513 114.495 133.158 111.553 125.591C111.156 124.57 110.148 124.422 103.873 124.461C89.2876 124.552 77.142 119.32 67.2529 108.684C57.4052 98.0943 52.3575 82.5676 54.2759 68.7717C56.6763 51.5077 66.9697 37.0719 82.0464 29.8241C88.9529 26.5036 94.4471 25.2416 102.363 25.1554C106.134 25.115 109.221 25.0133 109.224 24.9305C109.227 24.8477 108.359 22.575 107.297 19.88C106.235 17.185 104.429 11.8248 103.283 7.9682C102.138 4.11095 101.124 0.878623 101.03 0.783673C100.936 0.689397 100.077 0.413978 99.1219 0.1729C97.3896 -0.264138 97.3829 -0.251348 96.9478 4.93384ZM121.906 16.4113C119.535 21.4726 117.512 25.8214 117.41 26.076C117.308 26.3298 119.412 27.4221 122.086 28.5029C124.76 29.5844 127.102 30.544 127.291 30.6369C127.481 30.7292 127.636 25.6032 127.636 19.245C127.636 11.7022 127.39 7.60254 126.927 7.44765C126.536 7.31634 124.277 11.35 121.906 16.4113ZM141.882 31.8558C139.201 34.2847 137.007 36.4982 137.007 36.773C137.007 37.0484 138.393 38.8672 140.086 40.8147L143.165 44.3555L145.856 36.7386C148.376 29.6053 148.72 27.4383 147.333 27.4383C147.016 27.4383 144.564 29.4261 141.882 31.8558ZM145.857 101.149C144.834 102.774 142.623 105.64 140.944 107.52C138.887 109.821 138.184 111.034 138.788 111.236C139.281 111.401 142.245 112.32 145.374 113.277C168.304 120.29 203.71 134.224 240.406 150.675L258.723 158.888L259.933 157.304C260.598 156.434 261.074 155.522 260.99 155.278C260.864 154.907 148.332 98.0963 147.871 98.1703C147.786 98.1838 146.88 99.5239 145.857 101.149ZM125.68 119.262C119.086 122.607 119.05 122.638 120.649 123.688C127.868 128.43 146.221 145.44 173.534 172.702L196.003 195.13L198.133 194.383C199.303 193.973 200.262 193.511 200.262 193.358C200.262 192.873 133.235 115.993 132.768 115.942C132.522 115.915 129.333 117.409 125.68 119.262Z" fill="white"/>
</svg>
