<svg width="162" height="118" viewBox="0 0 162 118" fill="none" xmlns="http://www.w3.org/2000/svg">
<path d="M24.5679 116.007C23.4528 118.516 23.2743 101.301 23.1752 98.9466C22.5566 84.2557 21.3257 69.3652 19.9719 54.7277C18.5997 39.8903 18.1171 14.3641 6.67146 2.91847C-0.615078 -4.36806 2.71069 34.0329 3.05038 35.9956C5.69852 51.296 10.2761 71.4663 23.3145 81.6072C31.0692 87.6387 40.4489 84.3405 42.2555 74.7829C44.369 63.6018 40.4617 52.9413 37.8684 42.2628C37.1406 39.2662 36.6146 30.7039 35.1526 33.4191C33.2549 36.9433 36.2405 48.4669 36.6846 51.3852C38.5258 63.4844 39.3529 81.03 47.13 91.217C51.9876 97.5797 57.309 90.1615 58.411 85.3676C59.0784 82.4646 60.829 76.1147 59.5252 73.1812C59.3307 72.7436 56.5572 78.7047 57.5754 80.9108C61.6282 89.692 80.7995 85.1639 72.8953 78.6825C70.4666 76.6909 67.48 75.897 64.3997 75.897C63.5628 75.897 66.0188 75.4357 66.7674 75.0614C69.657 73.6166 72.073 71.5455 73.8006 68.7942C79.5631 59.6169 77.167 44.3431 76.0986 34.394C75.9558 33.0643 71.1824 6.46929 69.8313 13.2246C65.6703 34.03 74.607 54.2715 83.2015 72.4152C85.6025 77.484 84.9286 71.2368 85.4995 68.446C86.7167 62.4952 89.3739 60.1015 94.1343 64.6856C95.9041 66.3899 99.2677 70.8011 102.282 70.0476C105.428 69.261 104.665 65.4469 106.321 63.6411C108.015 61.7926 110.128 61.8019 111.613 59.1148C116.943 49.4705 113.583 36.4827 110.986 26.5947C110.92 26.3433 104.356 6.69087 107.156 14.4781C113.01 30.7551 124.182 43.6303 132.782 58.3488C137.673 66.7177 138.842 73.64 129.997 79.4485C127.793 80.8956 106.761 90.2987 110.36 80.9108C115.657 67.0902 127.163 52.166 136.821 41.079C139.72 37.7514 150.473 29.0588 142.392 38.2936" stroke="black" stroke-width="3" stroke-linecap="round"/>
<path d="M159.94 58.3486L157.434 63.3624" stroke="black" stroke-width="3" stroke-linecap="round"/>
</svg>
