<svg width="379" height="113" viewBox="0 0 379 113" fill="none" xmlns="http://www.w3.org/2000/svg">
<path d="M30.1822 86.8C27.4622 86.8 25.2222 86.3733 23.4622 85.52C21.7022 84.6133 20.3155 83.6267 19.3022 82.56C18.3422 81.4933 17.6755 80.6667 17.3022 80.08H16.7422V86H6.10219V25.2H16.7422V49.52H17.3022C17.6755 48.88 18.3422 48.0267 19.3022 46.96C20.3155 45.8933 21.7022 44.9333 23.4622 44.08C25.2222 43.2267 27.4622 42.8 30.1822 42.8C33.3822 42.8 36.1555 43.44 38.5022 44.72C40.8489 45.9467 42.7955 47.6267 44.3422 49.76C45.8889 51.84 47.0355 54.1867 47.7822 56.8C48.5822 59.4133 48.9822 62.08 48.9822 64.8C48.9822 67.52 48.5822 70.1867 47.7822 72.8C47.0355 75.4133 45.8889 77.7867 44.3422 79.92C42.7955 82 40.8489 83.68 38.5022 84.96C36.1555 86.1867 33.3822 86.8 30.1822 86.8ZM27.3822 78.08C29.8355 78.08 31.8622 77.44 33.4622 76.16C35.0622 74.8267 36.2622 73.1467 37.0622 71.12C37.8622 69.0933 38.2622 66.9867 38.2622 64.8C38.2622 62.6133 37.8622 60.5067 37.0622 58.48C36.2622 56.4533 35.0622 54.8 33.4622 53.52C31.8622 52.1867 29.8355 51.52 27.3822 51.52C24.9822 51.52 22.9822 52.1867 21.3822 53.52C19.7822 54.8 18.5822 56.4533 17.7822 58.48C16.9822 60.5067 16.5822 62.6133 16.5822 64.8C16.5822 66.9867 16.9822 69.0933 17.7822 71.12C18.5822 73.1467 19.7822 74.8267 21.3822 76.16C22.9822 77.44 24.9822 78.08 27.3822 78.08ZM74.4403 42.8C77.1603 42.8 79.4003 43.2533 81.1603 44.16C82.9203 45.0133 84.307 45.9733 85.3203 47.04C86.3337 48.0533 87.027 48.88 87.4003 49.52H87.8803V43.6H98.5203V86H87.8803V80.08H87.4003C87.027 80.72 86.3337 81.5733 85.3203 82.64C84.307 83.7067 82.9203 84.6667 81.1603 85.52C79.4003 86.3733 77.1603 86.8 74.4403 86.8C71.2937 86.8 68.547 86.1867 66.2003 84.96C63.8537 83.68 61.8803 82 60.2803 79.92C58.7337 77.7867 57.5603 75.4133 56.7603 72.8C56.0137 70.1867 55.6403 67.52 55.6403 64.8C55.6403 62.08 56.0137 59.4133 56.7603 56.8C57.5603 54.1867 58.7337 51.84 60.2803 49.76C61.8803 47.6267 63.8537 45.9467 66.2003 44.72C68.547 43.44 71.2937 42.8 74.4403 42.8ZM77.2403 51.52C74.8403 51.52 72.8137 52.1867 71.1603 53.52C69.5603 54.8 68.3603 56.4533 67.5603 58.48C66.7603 60.5067 66.3603 62.6133 66.3603 64.8C66.3603 66.9867 66.7603 69.0933 67.5603 71.12C68.3603 73.1467 69.5603 74.8267 71.1603 76.16C72.8137 77.44 74.8403 78.08 77.2403 78.08C79.6403 78.08 81.6403 77.44 83.2403 76.16C84.8403 74.8267 86.0403 73.1467 86.8403 71.12C87.6403 69.0933 88.0403 66.9867 88.0403 64.8C88.0403 62.6133 87.6403 60.5067 86.8403 58.48C86.0403 56.4533 84.8403 54.8 83.2403 53.52C81.6403 52.1867 79.6403 51.52 77.2403 51.52ZM107.824 86L107.904 25.2H118.464V86H107.824ZM144.732 86.8C141.265 86.8 138.412 86.3467 136.172 85.44C133.932 84.48 132.145 83.3067 130.812 81.92C129.532 80.48 128.572 79.0667 127.932 77.68C127.292 76.2933 126.865 75.1467 126.652 74.24C126.492 73.28 126.412 72.8 126.412 72.8H136.492C136.492 72.8 136.572 73.0933 136.732 73.68C136.945 74.2667 137.318 74.96 137.852 75.76C138.438 76.5067 139.318 77.1733 140.492 77.76C141.665 78.3467 143.212 78.64 145.132 78.64C147.425 78.64 149.078 78.16 150.092 77.2C151.105 76.1867 151.612 75.0667 151.612 73.84C151.612 72.6667 151.158 71.7333 150.252 71.04C149.398 70.2933 148.118 69.7333 146.412 69.36L140.572 68.16C138.225 67.68 136.038 66.9867 134.012 66.08C131.985 65.12 130.332 63.84 129.052 62.24C127.772 60.5867 127.132 58.48 127.132 55.92C127.132 52.1333 128.572 49.0133 131.452 46.56C134.332 44.0533 138.252 42.8 143.212 42.8C146.358 42.8 148.945 43.2267 150.972 44.08C153.052 44.9333 154.705 46 155.932 47.28C157.212 48.56 158.145 49.84 158.732 51.12C159.372 52.4 159.772 53.4933 159.932 54.4C160.145 55.2533 160.252 55.68 160.252 55.68H150.492C150.492 55.68 150.412 55.44 150.252 54.96C150.092 54.4267 149.745 53.84 149.212 53.2C148.732 52.56 147.985 52 146.972 51.52C146.012 50.9867 144.705 50.72 143.052 50.72C140.812 50.72 139.212 51.2 138.252 52.16C137.345 53.12 136.892 54.1333 136.892 55.2C136.892 56.3733 137.398 57.28 138.412 57.92C139.425 58.56 140.732 59.04 142.332 59.36L147.852 60.56C151.798 61.36 155.025 62.7467 157.532 64.72C160.092 66.6933 161.372 69.5467 161.372 73.28C161.372 75.7867 160.705 78.08 159.372 80.16C158.092 82.1867 156.198 83.8133 153.692 85.04C151.238 86.2133 148.252 86.8 144.732 86.8ZM185.89 42.8C188.61 42.8 190.85 43.2533 192.61 44.16C194.37 45.0133 195.757 45.9733 196.77 47.04C197.784 48.0533 198.477 48.88 198.85 49.52H199.33V43.6H209.97V86H199.33V80.08H198.85C198.477 80.72 197.784 81.5733 196.77 82.64C195.757 83.7067 194.37 84.6667 192.61 85.52C190.85 86.3733 188.61 86.8 185.89 86.8C182.744 86.8 179.997 86.1867 177.65 84.96C175.304 83.68 173.33 82 171.73 79.92C170.184 77.7867 169.01 75.4133 168.21 72.8C167.464 70.1867 167.09 67.52 167.09 64.8C167.09 62.08 167.464 59.4133 168.21 56.8C169.01 54.1867 170.184 51.84 171.73 49.76C173.33 47.6267 175.304 45.9467 177.65 44.72C179.997 43.44 182.744 42.8 185.89 42.8ZM188.69 51.52C186.29 51.52 184.264 52.1867 182.61 53.52C181.01 54.8 179.81 56.4533 179.01 58.48C178.21 60.5067 177.81 62.6133 177.81 64.8C177.81 66.9867 178.21 69.0933 179.01 71.12C179.81 73.1467 181.01 74.8267 182.61 76.16C184.264 77.44 186.29 78.08 188.69 78.08C191.09 78.08 193.09 77.44 194.69 76.16C196.29 74.8267 197.49 73.1467 198.29 71.12C199.09 69.0933 199.49 66.9867 199.49 64.8C199.49 62.6133 199.09 60.5067 198.29 58.48C197.49 56.4533 196.29 54.8 194.69 53.52C193.09 52.1867 191.09 51.52 188.69 51.52ZM218.474 86V43.6H229.114V49.52H229.514C230.047 48.56 230.794 47.5733 231.754 46.56C232.714 45.4933 233.941 44.6133 235.434 43.92C236.981 43.1733 238.874 42.8 241.114 42.8C244.261 42.8 246.847 43.5467 248.874 45.04C250.901 46.5333 252.394 48.4533 253.354 50.8H253.514C254.581 48.7733 256.154 46.9333 258.234 45.28C260.367 43.6267 263.194 42.8 266.714 42.8C269.701 42.8 272.181 43.4933 274.154 44.88C276.181 46.2133 277.674 48.0267 278.634 50.32C279.647 52.6133 280.154 55.0933 280.154 57.76V86H269.514V60C269.514 57.5467 268.901 55.5467 267.674 54C266.501 52.4 264.741 51.6 262.394 51.6C260.527 51.6 259.007 52.1067 257.834 53.12C256.714 54.08 255.887 55.3067 255.354 56.8C254.874 58.2933 254.634 59.8133 254.634 61.36V86H243.994V60C243.994 57.5467 243.407 55.5467 242.234 54C241.061 52.4 239.274 51.6 236.874 51.6C235.007 51.6 233.487 52.1067 232.314 53.12C231.194 54.08 230.367 55.3333 229.834 56.88C229.354 58.3733 229.114 59.8667 229.114 61.36V86H218.474ZM294.837 37.04C292.97 37.04 291.423 36.4267 290.197 35.2C289.023 33.9733 288.437 32.5067 288.437 30.8C288.437 29.0933 289.023 27.6267 290.197 26.4C291.423 25.1733 292.97 24.56 294.837 24.56C296.703 24.56 298.25 25.1733 299.477 26.4C300.703 27.6267 301.317 29.0933 301.317 30.8C301.317 32.5067 300.703 33.9733 299.477 35.2C298.25 36.4267 296.703 37.04 294.837 37.04ZM289.557 86V43.6H300.197V86H289.557ZM341.249 101.6V80.08H340.769C340.396 80.72 339.702 81.5733 338.689 82.64C337.676 83.7067 336.289 84.6667 334.529 85.52C332.769 86.3733 330.529 86.8 327.809 86.8C324.662 86.8 321.916 86.1867 319.569 84.96C317.222 83.68 315.249 82 313.649 79.92C312.102 77.7867 310.929 75.4133 310.129 72.8C309.382 70.1867 309.009 67.52 309.009 64.8C309.009 62.08 309.382 59.4133 310.129 56.8C310.929 54.1867 312.102 51.84 313.649 49.76C315.249 47.6267 317.222 45.9467 319.569 44.72C321.916 43.44 324.662 42.8 327.809 42.8C330.529 42.8 332.769 43.2533 334.529 44.16C336.289 45.0133 337.676 45.9733 338.689 47.04C339.702 48.0533 340.396 48.88 340.769 49.52H341.249V43.6H351.889V101.6H341.249ZM330.609 78.08C333.009 78.08 335.009 77.44 336.609 76.16C338.209 74.8267 339.409 73.1467 340.209 71.12C341.009 69.0933 341.409 66.9867 341.409 64.8C341.409 62.6133 341.009 60.5067 340.209 58.48C339.409 56.4533 338.209 54.8 336.609 53.52C335.009 52.1867 333.009 51.52 330.609 51.52C328.209 51.52 326.182 52.1867 324.529 53.52C322.929 54.8 321.729 56.4533 320.929 58.48C320.129 60.5067 319.729 62.6133 319.729 64.8C319.729 66.9867 320.129 69.0933 320.929 71.12C321.729 73.1467 322.929 74.8267 324.529 76.16C326.182 77.44 328.209 78.08 330.609 78.08Z" fill="white"/>
<path d="M369.009 49.85C366.976 49.85 365.276 49.4167 363.909 48.55C362.576 47.65 361.559 46.5 360.859 45.1C360.192 43.6667 359.859 42.1833 359.859 40.65C359.859 39.15 360.192 37.7 360.859 36.3C361.559 34.9 362.576 33.75 363.909 32.85C365.276 31.95 366.976 31.5 369.009 31.5C371.042 31.5 372.742 31.95 374.109 32.85C375.476 33.75 376.492 34.9 377.159 36.3C377.826 37.7 378.159 39.15 378.159 40.65C378.159 42.1833 377.826 43.6667 377.159 45.1C376.492 46.5 375.476 47.65 374.109 48.55C372.742 49.4167 371.042 49.85 369.009 49.85ZM369.009 47.85C370.609 47.85 371.926 47.5 372.959 46.8C374.026 46.1 374.809 45.2 375.309 44.1C375.842 43 376.109 41.85 376.109 40.65C376.109 39.45 375.842 38.3167 375.309 37.25C374.809 36.15 374.026 35.25 372.959 34.55C371.926 33.85 370.609 33.5 369.009 33.5C367.442 33.5 366.126 33.85 365.059 34.55C364.026 35.25 363.242 36.15 362.709 37.25C362.176 38.3167 361.909 39.45 361.909 40.65C361.909 41.85 362.176 43 362.709 44.1C363.242 45.2 364.026 46.1 365.059 46.8C366.126 47.5 367.442 47.85 369.009 47.85ZM365.259 45.45V35.8H369.409C370.576 35.8 371.509 36.0833 372.209 36.65C372.909 37.1833 373.259 37.9667 373.259 39C373.259 40.4 372.659 41.3667 371.459 41.9L373.409 45.45H370.659L368.909 42.3H367.809V45.45H365.259ZM369.359 37.95H367.809V40.25H369.359C370.259 40.25 370.709 39.8833 370.709 39.15C370.709 38.35 370.259 37.95 369.359 37.95Z" fill="white"/>
</svg>
