<svg width="194" height="115" viewBox="0 0 194 115" fill="none" xmlns="http://www.w3.org/2000/svg">
<path d="M193.369 28.1572C193.369 13.1021 181.334 0 166.541 0H48.1455C43.8061 0.016127 39.5319 1.07625 35.6718 3.09384C31.8117 5.11143 28.475 8.02932 25.9341 11.6094C23.3932 15.1894 21.72 19.3302 21.0511 23.6938C20.3823 28.0573 20.7366 32.52 22.0854 36.7176C16.8764 37.8106 12.0852 40.4026 8.2812 44.1856C2.94038 49.5549 0 57.0626 0 65.325C0 73.5875 3.03796 81.2144 8.54792 86.5903C12.2299 90.172 18.7156 94.4423 28.7142 94.4423H47.7617C52.7839 94.4445 57.7117 93.0528 62.0147 90.417C62.7266 97.2052 65.8938 103.481 70.9004 108.025C75.9069 112.568 82.395 115.054 89.1026 114.999C99.2233 115.042 109.001 111.269 116.548 104.406C120.775 100.547 124.354 96.012 127.145 90.9797C130.693 92.692 134.571 93.5785 138.497 93.575H167.38C174.436 93.561 181.199 90.7022 186.188 85.6247C191.177 80.5471 193.986 73.6644 194 66.4836L193.369 28.1572ZM28.7142 72.5944C24.3167 72.5944 21.8056 70.3567 21.8056 65.6693C21.8056 60.876 24.3167 58.5324 28.7142 58.5324C33.1118 58.5324 35.5253 60.8827 35.5253 65.6759C35.5253 70.3633 33.1118 72.5944 28.7142 72.5944ZM77.276 72.5944C76.4077 72.5956 75.5506 72.3946 74.7703 72.0067C73.99 71.6188 73.3073 71.0544 72.7744 70.3567C69.5218 65.7752 62.5156 55.659 62.5156 55.659C62.5156 55.659 55.5029 65.7819 52.2568 70.3567C51.7235 71.054 51.0407 71.6182 50.2606 72.006C49.4804 72.3938 48.6234 72.5951 47.7552 72.5944C46.7005 72.5895 45.668 72.2858 44.7733 71.7173C43.8787 71.1489 43.1573 70.3381 42.6899 69.3758C42.2226 68.4135 42.0278 67.3379 42.1273 66.2693C42.2268 65.2007 42.6168 64.1814 43.2535 63.3256L55.9193 47.1384L43.6764 31.8052C42.9108 30.8007 42.5046 29.5607 42.5249 28.2896C42.5215 27.5331 42.6653 26.7834 42.9482 26.0838C43.2311 25.3842 43.6474 24.7486 44.173 24.2137C44.6986 23.6787 45.3232 23.2551 46.0106 22.9672C46.698 22.6793 47.4347 22.5329 48.178 22.5364C49.0462 22.5362 49.903 22.7377 50.6831 23.1255C51.4632 23.5132 52.1461 24.0771 52.6796 24.7741L62.5156 38.5118L72.3516 24.7741C72.8851 24.0771 73.568 23.5132 74.3481 23.1255C75.1282 22.7377 75.985 22.5362 76.8532 22.5364C77.5965 22.5329 78.3332 22.6793 79.0206 22.9672C79.708 23.2551 80.3326 23.6787 80.8582 24.2137C81.3838 24.7486 81.8001 25.3842 82.083 26.0838C82.3659 26.7834 82.5097 27.5331 82.5063 28.2896C82.5266 29.5607 82.1204 30.8007 81.3548 31.8052L69.1119 47.1384L81.7712 63.3323C82.4057 64.1876 82.794 65.2056 82.8928 66.2726C82.9916 67.3396 82.797 68.4135 82.3306 69.3744C81.8643 70.3353 81.1446 71.1453 80.252 71.7139C79.3594 72.2825 78.3291 72.5874 77.276 72.5944ZM130.229 30.5208L110.759 75.2559C106.153 85.6965 99.5631 93.1314 89.0961 93.1314C88.3933 93.1566 87.6927 93.0375 87.0361 92.7812C86.3796 92.5249 85.7804 92.1366 85.2745 91.6395C84.7685 91.1425 84.3661 90.5468 84.0913 89.888C83.8165 89.2292 83.6748 88.5209 83.6748 87.8052C83.6748 87.0895 83.8165 86.3811 84.0913 85.7223C84.3661 85.0635 84.7685 84.4678 85.2745 83.9708C85.7804 83.4737 86.3796 83.0854 87.0361 82.8291C87.6927 82.5728 88.3933 82.4537 89.0961 82.4789C95.79 82.4789 98.9321 77.0434 102.386 68.3109L86.2663 30.5208C85.9875 29.809 85.8461 29.0492 85.85 28.283C85.8465 27.5265 85.9904 26.7768 86.2733 26.0772C86.5562 25.3776 86.9724 24.742 87.4981 24.207C88.0237 23.6721 88.6482 23.2484 89.3357 22.9606C90.0231 22.6727 90.7597 22.5263 91.5031 22.5298C92.6304 22.5191 93.7338 22.8605 94.6644 23.5081C95.595 24.1557 96.308 25.0782 96.7073 26.1512L108.222 55.765L119.736 26.1512C120.136 25.0788 120.849 24.1568 121.78 23.5093C122.71 22.8619 123.813 22.52 124.94 22.5298C125.683 22.5263 126.42 22.6727 127.108 22.9606C127.795 23.2484 128.42 23.6721 128.945 24.207C129.471 24.742 129.887 25.3776 130.17 26.0772C130.453 26.7768 130.597 27.5265 130.593 28.283C130.614 29.0458 130.49 29.8055 130.229 30.5208ZM167.38 71.7404H138.497C137.225 71.7266 136.008 71.206 135.108 70.2902C134.208 69.3744 133.697 68.1362 133.683 66.8412C133.673 65.6684 134.082 64.5318 134.835 63.6434L147.305 46.6418L155.222 35.8768L157.33 33.0035H139.649C139.03 33.0035 138.418 32.8795 137.846 32.6386C137.275 32.3977 136.756 32.0447 136.318 31.5996C135.881 31.1545 135.534 30.6261 135.297 30.0445C135.061 29.463 134.939 28.8397 134.939 28.2102C134.939 27.5807 135.061 26.9574 135.297 26.3759C135.534 25.7943 135.881 25.2659 136.318 24.8208C136.756 24.3757 137.275 24.0227 137.846 23.7818C138.418 23.5409 139.03 23.4169 139.649 23.4169H166.541C167.5 23.4166 168.438 23.6936 169.248 24.2156C170.058 24.7376 170.705 25.483 171.114 26.3651C171.523 27.2471 171.677 28.2293 171.559 29.1972C171.44 30.1651 171.054 31.0788 170.444 31.8316L148.333 61.9419H167.38C168.658 61.9419 169.883 62.4585 170.787 63.3779C171.69 64.2973 172.198 65.5442 172.198 66.8445C172.198 68.1447 171.69 69.3917 170.787 70.3111C169.883 71.2305 168.658 71.747 167.38 71.747V71.7404Z" fill="white"/>
</svg>
